<svg width="17" height="25" viewBox="0 0 17 25" fill="none" xmlns="http://www.w3.org/2000/svg">
<path d="M14.695 3.69872H11.3585C10.7556 3.70064 10.7782 4.5992 11.3585 4.59392H14.695V5.05328H11.3585C10.759 5.048 10.781 5.94608 11.3585 5.94848H14.695V6.41792H11.3585C10.759 6.41792 10.781 7.31552 11.3585 7.31312H14.695V7.76048H11.3585C10.7714 7.7648 10.781 8.66336 11.3585 8.66624H14.695V9.11456H11.3585C10.7714 9.11264 10.769 10.0098 11.3585 10.0098H14.695V10.4571H11.3585C10.7714 10.459 10.769 11.3571 11.3585 11.3528H14.695V11.8112H11.3585C10.7714 11.8059 10.769 12.703 11.3585 12.7064H14.695V13.1528H11.3585C10.7714 13.1523 10.781 14.0514 11.3585 14.0485H14.695V22.7648C14.6969 24.093 16.7143 24.069 16.7201 22.7648V2.3672C16.7143 1.76048 16.2161 0.99344 15.3962 0.99104H11.3585C10.7556 0.99152 10.7782 1.89008 11.3585 1.88624L14.695 1.89728V2.34368H11.3585C10.7566 2.3408 10.7791 3.23888 11.3585 3.23936H14.695V3.69872ZM11.129 19.1518C11.1271 17.6014 9.52008 15.9339 7.60008 17.0139V11.084L6.35832 1.304C6.3324 1.04528 6.11304 0.98432 5.96568 0.98C5.81352 0.98432 5.50872 1.04528 5.4756 1.304L4.24008 11.084V17.0139C2.32008 15.9339 0.764884 17.612 0.764404 19.1398C0.764884 20.4992 1.81128 21.6157 3.22728 21.6123C4.65384 21.6157 5.68008 20.3643 5.68008 19.1398V12.98H6.16008V19.1398C6.16008 20.5107 7.22184 21.5254 8.40168 21.5898C8.382 22.3414 8.62728 23.4138 9.08904 23.839C9.63048 24.3382 10.2751 23.6998 10.0106 23.18C9.75529 22.6962 9.50472 22.4096 9.70824 21.3531C10.5588 20.9595 11.1271 20.131 11.129 19.1518ZM3.282 20.3715C2.95833 20.3715 2.64792 20.2429 2.41905 20.0141C2.19018 19.7852 2.0616 19.4748 2.0616 19.1511C2.0616 18.8274 2.19018 18.517 2.41905 18.2882C2.64792 18.0593 2.95833 17.9307 3.282 17.9307C3.94728 17.9346 4.4892 18.4803 4.494 19.1518C4.49288 19.4736 4.36507 19.7821 4.13824 20.0103C3.91141 20.2386 3.6038 20.3684 3.282 20.3715ZM7.39608 19.1518C7.3972 18.8298 7.52503 18.5212 7.75193 18.2927C7.97883 18.0641 8.28656 17.9341 8.60856 17.9307C8.93061 17.9339 9.23843 18.0638 9.46531 18.2924C9.69218 18.521 9.81982 18.8298 9.82057 19.1518C9.82007 19.4738 9.69246 19.7826 9.46549 20.011C9.23852 20.2394 8.93055 20.369 8.60856 20.3715C8.28669 20.3685 7.97896 20.2388 7.75202 20.0105C7.52508 19.7822 7.39721 19.4737 7.39608 19.1518Z" fill="#737373"/>
</svg>
