<svg width="18" height="21" viewBox="0 0 18 21" fill="none" xmlns="http://www.w3.org/2000/svg">
<path d="M17.3699 19.75C17.3699 19.9489 17.2909 20.1397 17.1502 20.2803C17.0096 20.421 16.8188 20.5 16.6199 20.5H1.37988C1.18097 20.5 0.990205 20.421 0.849553 20.2803C0.7089 20.1397 0.629883 19.9489 0.629883 19.75C0.629883 15.65 5.12988 12.47 8.99988 12.47C12.8699 12.47 17.3699 15.65 17.3699 19.75ZM14.0999 5.61C14.0979 6.61826 13.7971 7.6033 13.2355 8.44068C12.6739 9.27805 11.8767 9.93018 10.9446 10.3146C10.0126 10.6991 8.98745 10.7987 7.99881 10.6008C7.01016 10.4029 6.10237 9.91636 5.39012 9.20271C4.67787 8.48907 4.19313 7.58032 3.99716 6.59129C3.80118 5.60226 3.90276 4.57733 4.28906 3.64601C4.67536 2.71469 5.32904 1.91877 6.16752 1.35882C7.00599 0.798861 7.99162 0.500002 8.99988 0.5C10.3534 0.502649 11.6506 1.04219 12.6067 2.00022C13.5629 2.95824 14.0999 4.25647 14.0999 5.61Z" fill="white"/>
</svg>
